<svg width="16" height="16" viewBox="0 0 16 16" fill="none" xmlns="http://www.w3.org/2000/svg">
<path fill-rule="evenodd" clip-rule="evenodd" d="M5.99984 1.99996C3.7907 1.99996 1.99984 3.79082 1.99984 5.99996C1.99984 8.2091 3.7907 9.99996 5.99984 9.99996C8.20898 9.99996 9.99984 8.2091 9.99984 5.99996C9.99984 3.79082 8.20898 1.99996 5.99984 1.99996ZM0.666504 5.99996C0.666504 3.05444 3.05432 0.666626 5.99984 0.666626C8.94536 0.666626 11.3332 3.05444 11.3332 5.99996C11.3332 8.94548 8.94536 11.3333 5.99984 11.3333C3.05432 11.3333 0.666504 8.94548 0.666504 5.99996Z" fill="#B6B3B3"/>
<path d="M9.33317 10.0666C9.33317 9.66162 9.6615 9.33329 10.0665 9.33329H11.2962C11.4903 9.33329 11.6765 9.41027 11.814 9.54735L15.0895 12.8137C15.3784 13.1017 15.3767 13.5701 15.0857 13.856L13.8241 15.0957C13.5363 15.3785 13.074 15.3756 12.7897 15.0893L9.54612 11.8225C9.40972 11.6851 9.33317 11.4994 9.33317 11.3058V10.0666Z" fill="#B6B3B3"/>
</svg>
